<svg width="30" height="30" viewBox="0 0 30 30" fill="none" xmlns="http://www.w3.org/2000/svg">
<path opacity="0.3" d="M0.5 2.49093C0.5 1.31601 1.3017 0.5 2.14286 0.5H27.8571C28.6983 0.5 29.5 1.31601 29.5 2.49093C29.5 3.66585 28.6983 4.48185 27.8571 4.48185H2.14286C1.3017 4.48185 0.5 3.66585 0.5 2.49093ZM0.5 14.9456C0.5 13.7706 1.3017 12.9546 2.14286 12.9546H27.8571C28.6983 12.9546 29.5 13.7706 29.5 14.9456C29.5 16.1205 28.6983 16.9365 27.8571 16.9365H2.14286C1.3017 16.9365 0.5 16.1205 0.5 14.9456ZM29.5 27.4002C29.5 28.5751 28.6983 29.3911 27.8571 29.3911H2.14286C1.3017 29.3911 0.5 28.5751 0.5 27.4002C0.5 26.2253 1.3017 25.4093 2.14286 25.4093H27.8571C28.6983 25.4093 29.5 26.2253 29.5 27.4002Z" fill="white" stroke="black"/>
</svg>
