<svg width="40" height="41" viewBox="0 0 40 41" fill="none" xmlns="http://www.w3.org/2000/svg">
<rect width="40" height="40.0771" rx="8" fill="#F9AA01"/>
<path d="M20.5028 13.1155C16.9557 13.1155 14.0945 15.9828 14.0945 19.5375C14.0945 23.0923 16.9557 25.9595 20.5028 25.9595C24.0499 25.9595 26.911 23.0923 26.911 19.5375C26.911 15.9828 24.0499 13.1155 20.5028 13.1155ZM20.5028 23.7127C18.2105 23.7127 16.3366 21.8403 16.3366 19.5375C16.3366 17.2347 18.205 15.3624 20.5028 15.3624C22.8006 15.3624 24.669 17.2347 24.669 19.5375C24.669 21.8403 22.795 23.7127 20.5028 23.7127ZM28.6679 12.8528C28.6679 13.6856 27.9986 14.3507 27.1732 14.3507C26.3422 14.3507 25.6785 13.68 25.6785 12.8528C25.6785 12.0256 26.3477 11.3549 27.1732 11.3549C27.9986 11.3549 28.6679 12.0256 28.6679 12.8528ZM32.9122 14.3731C32.8173 12.3665 32.36 10.5891 30.8932 9.12476C29.432 7.66038 27.6584 7.20206 25.6562 7.10146C23.5926 6.98408 17.4074 6.98408 15.3438 7.10146C13.3472 7.19648 11.5736 7.65479 10.1068 9.11917C8.63999 10.5836 8.18823 12.3609 8.08784 14.3675C7.97072 16.4355 7.97072 22.634 8.08784 24.702C8.18265 26.7085 8.63999 28.4859 10.1068 29.9503C11.5736 31.4146 13.3416 31.873 15.3438 31.9736C17.4074 32.0909 23.5926 32.0909 25.6562 31.9736C27.6584 31.8785 29.432 31.4202 30.8932 29.9503C32.3544 28.4859 32.8118 26.7085 32.9122 24.702C33.0293 22.634 33.0293 16.4411 32.9122 14.3731ZM30.2462 26.9209C29.8112 28.0164 28.969 28.8604 27.8703 29.3019C26.225 29.9559 22.321 29.8049 20.5028 29.8049C18.6846 29.8049 14.775 29.9503 13.1352 29.3019C12.0421 28.866 11.1999 28.022 10.7593 26.9209C10.1068 25.2721 10.2574 21.3596 10.2574 19.5375C10.2574 17.7154 10.1124 13.7974 10.7593 12.1541C11.1944 11.0586 12.0365 10.2147 13.1352 9.77311C14.7805 9.11917 18.6846 9.27008 20.5028 9.27008C22.321 9.27008 26.2306 9.12476 27.8703 9.77311C28.9635 10.2091 29.8056 11.053 30.2462 12.1541C30.8988 13.803 30.7482 17.7154 30.7482 19.5375C30.7482 21.3596 30.8988 25.2777 30.2462 26.9209Z" fill="#1B1426"/>
</svg>
