<svg width="30" height="9" viewBox="0 0 30 9" fill="none" xmlns="http://www.w3.org/2000/svg">
<path d="M7.77778 4.26145C7.77778 6.61286 6.03472 8.5229 3.88889 8.5229C1.74306 8.5229 0 6.61286 0 4.26145C0 1.91004 1.74306 0 3.88889 0C6.03472 0 7.77778 1.91004 7.77778 4.26145ZM18.8889 4.26145C18.8889 6.61286 17.1458 8.5229 15 8.5229C12.8542 8.5229 11.1111 6.61286 11.1111 4.26145C11.1111 1.91004 12.8542 0 15 0C17.1458 0 18.8889 1.91004 18.8889 4.26145ZM24.5 8.5229C24.5 8.5229 22.2222 6.61286 22.2222 4.26145C22.2222 1.91004 23.9653 0 26.1111 0C28.2569 0 30 1.91004 30 4.26145C30 6.61286 29 9.5 24.5 8.5229Z" fill="white"/>
</svg>
