<svg width="25" height="19" viewBox="0 0 25 19" fill="none" xmlns="http://www.w3.org/2000/svg">
<path d="M2.34375 0C1.0498 0 0 1.05986 0 2.3662C0 3.11056 0.34668 3.81056 0.9375 4.25915L11.5625 12.3042C12.1191 12.7232 12.8809 12.7232 13.4375 12.3042L24.0625 4.25915C24.6533 3.81056 25 3.11056 25 2.3662C25 1.05986 23.9502 0 22.6562 0H2.34375ZM0 5.52113V15.7746C0 17.5148 1.40137 18.9296 3.125 18.9296H21.875C23.5986 18.9296 25 17.5148 25 15.7746V5.52113L14.375 13.5662C13.2617 14.4092 11.7383 14.4092 10.625 13.5662L0 5.52113Z" fill="white"/>
</svg>
