<svg width="25" height="23" viewBox="0 0 25 23" fill="none" xmlns="http://www.w3.org/2000/svg">
<path d="M12.5028 5.48986C8.95566 5.48986 6.09453 8.06948 6.09453 11.2676C6.09453 14.4657 8.95566 17.0453 12.5028 17.0453C16.0499 17.0453 18.911 14.4657 18.911 11.2676C18.911 8.06948 16.0499 5.48986 12.5028 5.48986ZM12.5028 15.0239C10.2105 15.0239 8.33659 13.3393 8.33659 11.2676C8.33659 9.19586 10.205 7.51132 12.5028 7.51132C14.8006 7.51132 16.669 9.19586 16.669 11.2676C16.669 13.3393 14.795 15.0239 12.5028 15.0239ZM20.6679 5.25352C20.6679 6.00277 19.9986 6.60116 19.1732 6.60116C18.3422 6.60116 17.6785 5.99774 17.6785 5.25352C17.6785 4.50931 18.3477 3.90589 19.1732 3.90589C19.9986 3.90589 20.6679 4.50931 20.6679 5.25352ZM24.9122 6.62127C24.8173 4.81604 24.36 3.21698 22.8932 1.89951C21.432 0.582048 19.6584 0.169712 17.6562 0.0791988C15.5926 -0.0263996 9.40742 -0.0263996 7.34384 0.0791988C5.34718 0.164683 3.57362 0.57702 2.1068 1.89449C0.639989 3.21195 0.188232 4.81101 0.0878416 6.61625C-0.0292805 8.47679 -0.0292805 14.0534 0.0878416 15.9139C0.182655 17.7192 0.639989 19.3182 2.1068 20.6357C3.57362 21.9532 5.34161 22.3655 7.34384 22.456C9.40742 22.5616 15.5926 22.5616 17.6562 22.456C19.6584 22.3705 21.432 21.9582 22.8932 20.6357C24.3544 19.3182 24.8118 17.7192 24.9122 15.9139C25.0293 14.0534 25.0293 8.48182 24.9122 6.62127ZM22.2462 17.9102C21.8112 18.8958 20.969 19.6551 19.8703 20.0524C18.225 20.6407 14.321 20.505 12.5028 20.505C10.6846 20.505 6.77496 20.6357 5.13525 20.0524C4.04211 19.6602 3.19994 18.9009 2.75934 17.9102C2.1068 16.4268 2.25739 12.9069 2.25739 11.2676C2.25739 9.62831 2.11238 6.10334 2.75934 4.62496C3.19437 3.63937 4.03653 2.88007 5.13525 2.48282C6.78054 1.89449 10.6846 2.03026 12.5028 2.03026C14.321 2.03026 18.2306 1.89951 19.8703 2.48282C20.9635 2.87504 21.8056 3.63435 22.2462 4.62496C22.8988 6.10837 22.7482 9.62831 22.7482 11.2676C22.7482 12.9069 22.8988 16.4319 22.2462 17.9102Z" fill="white"/>
</svg>
