<svg width="25" height="23" viewBox="0 0 25 23" fill="none" xmlns="http://www.w3.org/2000/svg">
<path d="M23.2143 0H1.78013C0.797991 0 0 0.729376 0 1.62475V20.9105C0 21.8058 0.797991 22.5352 1.78013 22.5352H23.2143C24.1964 22.5352 25 21.8058 25 20.9105V1.62475C25 0.729376 24.1964 0 23.2143 0ZM7.5558 19.3159H3.85045V8.56137H7.56138V19.3159H7.5558ZM5.70312 7.09256C4.51451 7.09256 3.55469 6.22233 3.55469 5.15594C3.55469 4.08954 4.51451 3.21932 5.70312 3.21932C6.88616 3.21932 7.85156 4.08954 7.85156 5.15594C7.85156 6.22736 6.89174 7.09256 5.70312 7.09256ZM21.4453 19.3159H17.74V14.0845C17.74 12.837 17.7121 11.2324 15.8147 11.2324C13.8839 11.2324 13.5882 12.5905 13.5882 13.994V19.3159H9.88281V8.56137H13.4375V10.0302H13.4877C13.9844 9.18511 15.1953 8.29477 16.9978 8.29477C20.7478 8.29477 21.4453 10.5231 21.4453 13.4205V19.3159Z" fill="white"/>
</svg>
