<svg width="25" height="23" viewBox="0 0 25 23" fill="none" xmlns="http://www.w3.org/2000/svg">
<path d="M17.9717 14.2387L17.6734 14.6071L18.0254 14.9246L24.2073 20.5004L24.2075 20.5005C24.5975 20.852 24.5975 21.3997 24.2075 21.7512C23.7873 22.1299 23.0851 22.1299 22.6649 21.7512L16.4831 16.1756L16.1957 15.9164L15.8728 16.1296C14.2754 17.1842 12.3009 17.8072 10.1567 17.8072C4.77208 17.8072 0.5 13.8863 0.5 9.15359C0.5 4.4209 4.77208 0.5 10.1567 0.5C15.5414 0.5 19.8135 4.4209 19.8135 9.15359C19.8135 11.0499 19.1312 12.8065 17.9717 14.2387ZM10.1567 15.9907C14.2647 15.9907 17.6883 12.976 17.6883 9.15359C17.6883 5.3312 14.2647 2.31649 10.1567 2.31649C6.04876 2.31649 2.62515 5.3312 2.62515 9.15359C2.62515 12.976 6.04876 15.9907 10.1567 15.9907Z" fill="#1B1426" stroke="#F9AA01"/>
</svg>
