<svg width="25" height="23" viewBox="0 0 25 23" fill="none" xmlns="http://www.w3.org/2000/svg">
<path d="M16.0714 7.54226H16.5714V7.04226V4.92958C16.5714 2.99566 14.6289 1.61268 12.5 1.61268C10.3711 1.61268 8.42857 2.99566 8.42857 4.92958V7.04226V7.54226H8.92857H16.0714ZM6.25 7.54226H6.75V7.04226V4.92958C6.75 2.58533 9.20481 0.5 12.5 0.5C15.7952 0.5 18.25 2.58533 18.25 4.92958V7.04226V7.54226H18.75H22.3214C23.6412 7.54226 24.5 8.36878 24.5 9.15493V18.3099C24.5 20.2624 22.4414 22.0352 19.6429 22.0352H5.35714C2.5586 22.0352 0.5 20.2624 0.5 18.3099V9.15493C0.5 8.36878 1.35882 7.54226 2.67857 7.54226H6.25ZM5.75 10.2113C5.75 11.1769 6.68805 11.7676 7.58929 11.7676C8.49052 11.7676 9.42857 11.1769 9.42857 10.2113C9.42857 9.24566 8.49052 8.65493 7.58929 8.65493C6.68805 8.65493 5.75 9.24566 5.75 10.2113ZM17.4107 11.7676C18.3119 11.7676 19.25 11.1769 19.25 10.2113C19.25 9.24566 18.3119 8.65493 17.4107 8.65493C16.5095 8.65493 15.5714 9.24566 15.5714 10.2113C15.5714 11.1769 16.5095 11.7676 17.4107 11.7676Z" fill="#1B1426" stroke="#F9AA01"/>
</svg>
